<?xml version="1.0" encoding="UTF-8"?>
<!DOCTYPE svg PUBLIC "-//W3C//DTD SVG 1.1//EN" "http://www.w3.org/Graphics/SVG/1.1/DTD/svg11.dtd">
<!-- Creator: CorelDRAW 2020 (64-Bit) -->
<svg xmlns="http://www.w3.org/2000/svg" xml:space="preserve" width="1554px" height="166px" version="1.1" style="shape-rendering:geometricPrecision; text-rendering:geometricPrecision; image-rendering:optimizeQuality; fill-rule:evenodd; clip-rule:evenodd"
viewBox="0 0 365.08 39.07"
 xmlns:xlink="http://www.w3.org/1999/xlink"
 xmlns:xodm="http://www.corel.com/coreldraw/odm/2003">
 <defs>
  <style type="text/css">
   <![CDATA[
    .fil0 {fill:#000;fill-rule:nonzero}
    .fil1 {fill:#000;fill-rule:nonzero}
    .fil2 {fill:#000;fill-rule:nonzero}
   ]]>
  </style>
 </defs>
 <g id="Katman_x0020_1">
  <metadata id="CorelCorpID_0Corel-Layer"/>
  <path class="fil0" d="M0 38.53l6.39 0c0.18,-0.78 0.31,-1.65 0.48,-2.45 0.29,-1.46 3.41,-16.7 3.41,-17.15 0.15,0.11 0.43,1.04 0.49,1.22l1.39 3.77c0.17,0.41 0.28,0.84 0.44,1.26l1.39 3.78c0.16,0.42 0.29,0.82 0.45,1.25 0.94,2.52 1.77,5.07 2.76,7.56 0.09,0.23 0.13,0.43 0.23,0.66 0.05,0.14 0.12,0.58 0.29,0.58l2.22 0c0.18,0 0.25,-0.37 0.31,-0.52 0.55,-1.39 1.04,-3.02 1.59,-4.45l0.48 -1.23c0.14,-0.43 0.3,-0.85 0.45,-1.3 0.3,-0.87 0.57,-1.71 0.91,-2.54l1.14 -3.11c0.58,-1.7 1.26,-3.38 1.84,-5.07 0.07,-0.23 0.14,-0.44 0.23,-0.64 0.15,-0.39 0.24,-0.75 0.41,-1.13 0,-0.01 0.01,-0.02 0.01,-0.03l0.07 -0.1c0.03,0.37 0.16,0.83 0.23,1.21 0.08,0.39 0.17,0.87 0.24,1.25 0.28,1.65 0.66,3.28 0.94,4.92l0.96 4.95c0.27,1.65 0.68,3.27 0.96,4.95l0.36 1.86c0.04,0.21 0.04,0.5 0.25,0.5l6.25 0c0,-0.3 -0.83,-4.22 -0.91,-4.64 -1.71,-8.46 -3.5,-16.93 -5.19,-25.39 -0.16,-0.79 -0.31,-1.54 -0.49,-2.32 -0.17,-0.79 -0.31,-1.54 -0.47,-2.33 -0.08,-0.4 -0.16,-0.8 -0.23,-1.16 -0.04,-0.21 -0.1,-1.04 -0.36,-1.04l-3.42 0c0,0.35 -0.32,1.18 -0.45,1.56l-1.43 4.6c-0.17,0.5 -0.32,1.03 -0.47,1.54 -0.16,0.52 -0.33,1.02 -0.49,1.52 -0.17,0.5 -0.33,1.01 -0.48,1.53 -0.08,0.26 -0.16,0.51 -0.23,0.78l-1.22 3.86c-0.15,0.52 -0.31,1.01 -0.48,1.53 -0.16,0.52 -0.32,1.04 -0.49,1.57l-0.95 3.07c-0.31,1.05 -0.71,2.04 -0.96,3.11l-5.99 -18.56c-0.33,-1.01 -0.62,-2.09 -0.96,-3.1 -0.3,-0.91 -0.64,-1.79 -0.87,-2.7 -0.04,-0.14 -0.06,-0.31 -0.23,-0.31l-3.41 0c0,0.29 -1.02,5.06 -1.14,5.72l-1.4 6.92c-0.08,0.4 -0.14,0.76 -0.23,1.17l-0.47 2.29c-1.08,5.39 -2.12,10.76 -3.23,16.14 -0.18,0.84 -0.92,4.06 -0.92,4.64l0 0z"/>
  <path class="fil1" d="M39.61 7.71c0.39,0.06 1.15,0.01 1.59,0.01 25.02,0 50.04,0 75.06,0l19.16 0c0.39,0 0.55,0.12 0.55,-0.25l0 -5.56 -96.37 0.02 0.01 5.78 0 0zm-0.07 0.06l96.36 0c0.09,0 0.13,-0.03 0.13,-0.13l0 -5.77 -96.49 0 0 5.9 0 0z"/>
  <path class="fil0" d="M49.09 39.01l-1.06 0c-0.62,-0.01 -1.15,-0.05 -1.94,-0.21 -0.8,-0.16 -0.87,-0.19 -1.61,-0.44 -0.73,-0.24 -1.44,-0.65 -2.03,-1.08 -0.57,-0.41 -1.14,-0.92 -1.55,-1.51 -0.93,-1.38 -1.49,-2.94 -1.49,-4.67 0,-2.16 0.12,-2.9 0.91,-4.73l0.53 -0.92c0.09,-0.14 0.19,-0.27 0.3,-0.41 0.1,-0.14 0.19,-0.26 0.3,-0.39 0.51,-0.57 0.86,-0.89 1.48,-1.37 0.15,-0.11 0.27,-0.18 0.41,-0.29 0.15,-0.11 0.28,-0.19 0.45,-0.29 0.92,-0.55 1.38,-0.75 2.43,-1.11 0.36,-0.14 0.71,-0.24 1.07,-0.33 1.85,-0.46 3.74,-0.63 5.67,-0.63 1.31,0 1.97,0.32 2.5,0.32 0,-0.89 -0.21,-1.54 -0.47,-2.16 -0.24,-0.56 -0.7,-1.06 -1.19,-1.39 -2.29,-1.51 -6.46,-1.21 -9.03,-0.32 -0.22,0.07 -0.44,0.15 -0.64,0.23 -0.17,0.07 -0.42,0.18 -0.61,0.22 0,-0.19 -0.6,-2.24 -0.66,-2.48l-0.52 -1.85c-0.04,-0.15 -0.12,-0.5 -0.18,-0.62 3.2,-1.69 9.14,-1.98 12.42,-1.08 2.54,0.7 4.6,1.88 5.77,4.21 1.21,2.43 1.54,5.69 1.54,8.43 0,1.66 0,3.32 0,4.99 0,1.95 0.01,4.93 0.97,6.51 0.51,0.84 0.34,0.59 0.84,1.04 0.07,0.08 0.25,0.22 0.33,0.28 -0.03,0.15 -0.14,0.33 -0.23,0.46 -0.08,0.12 -0.19,0.28 -0.28,0.38 -1.05,1.18 -1.98,1.21 -3.56,1.21 -1.57,0 -2.41,-0.9 -3.2,-1.95 -0.49,-0.66 -0.34,-0.57 -0.6,-1.11 -0.12,0.08 -0.17,0.23 -0.29,0.36 -0.56,0.57 -0.23,0.33 -0.99,0.91 -0.45,0.34 -1.04,0.68 -1.62,0.91 -1.23,0.48 -2.45,0.88 -4.14,0.88l-0.03 0 0 0zm-3.31 -8.85l0 0.55c0,1.99 1.54,3.23 3.53,3.23l0.09 0 0.09 0 0.09 0c1.79,-0.01 3.38,-0.07 4.71,-1.55 0.94,-1.06 1.18,-2.56 1.23,-4.09l0 -2.54c-0.52,-0.01 -1.25,-0.24 -2.19,-0.24l-0.12 0c-2.26,0.01 -3.47,0.07 -5.47,1.1 -1.22,0.64 -1.96,2.12 -1.96,3.54z"/>
  <path class="fil0" d="M128.88 39.01l-1.53 0c-1,-0.04 -1.99,-0.17 -2.9,-0.36 -0.62,-0.13 -1.28,-0.36 -1.86,-0.58 -0.22,-0.1 -0.35,-0.16 -0.55,-0.24 -0.85,-0.35 -1.34,-0.78 -2.01,-1.23l-0.88 -0.75c-0.48,-0.48 -0.38,-0.42 -0.76,-0.85 -1.34,-1.51 -2.24,-3.38 -2.74,-5.36 -0.48,-1.94 -0.53,-3.09 -0.53,-5.15 0,-2.41 0.55,-4.66 1.59,-6.73 0.61,-1.21 1.13,-1.95 2.07,-2.91 0.09,-0.08 0.14,-0.14 0.23,-0.21 0.6,-0.49 0.72,-0.81 1.51,-1.38 3.01,-2.18 7.08,-2.65 10.72,-1.97 0.52,0.1 0.9,0.2 1.34,0.32 1.9,0.53 3.73,1.69 5.05,3.13l0.38 0.45c0.94,1.2 1.57,2.19 2.07,3.67 0.52,1.56 0.98,3.48 0.98,5.54 0,2.5 -0.19,4.33 -0.95,6.49 -0.44,1.28 -1.13,2.62 -1.97,3.68l-0.75 0.87c-0.69,0.69 -1.36,1.28 -2.22,1.8 -0.35,0.21 -0.66,0.37 -1.03,0.55 -1.51,0.76 -3.38,1.14 -5.26,1.22l0 0zm-7.11 -14.88l0 0.25c0,2.59 0.05,5.16 1.51,7.2 0.94,1.3 2.54,2.08 4.21,2.23l1.17 0c0.93,-0.09 1.84,-0.38 2.62,-0.89 0.21,-0.13 0.3,-0.22 0.48,-0.37 1.11,-0.86 1.92,-2.55 2.26,-3.89 0.22,-0.9 0.37,-2 0.42,-3.14l0 -1.42c-0.12,-2.85 -0.94,-5.76 -2.99,-6.99 -1.28,-0.76 -2.19,-0.86 -3.63,-0.86l-0.07 0c-3.96,0 -5.98,4.18 -5.98,7.88l0 0z"/>
  <path class="fil0" d="M66.83 24.27c0,2.6 0.04,4.72 1.01,7.13 0.79,1.98 1.57,2.94 3.01,4.38l0.9 0.76c0.75,0.57 1.25,0.81 2.07,1.22 0.2,0.1 0.37,0.16 0.58,0.25 1.41,0.62 3.24,0.92 5.13,1l1.92 0c1.32,-0.05 2.6,-0.2 3.72,-0.42 1.29,-0.26 2.76,-1.04 3.9,-1.66 0.47,-0.26 0.39,-0.25 0.9,-0.5 -0.1,-0.17 -0.19,-0.4 -0.28,-0.6l-1.99 -4.43c-0.26,0.02 -0.57,0.36 -0.91,0.62 -1.05,0.77 -2.56,1.41 -3.87,1.56l-1.44 0.14c-0.29,0.01 -0.42,-0.04 -0.74,-0.04 -1.59,0 -3.51,-0.58 -4.69,-1.53 -2,-1.6 -2.61,-4.12 -2.61,-6.96 0,-2.81 0.78,-5.57 2.97,-7.36 2.07,-1.7 5.8,-1.84 8.15,-0.93 0.45,0.18 0.92,0.42 1.31,0.66 0.5,0.3 0.98,0.75 1.17,0.85 0.44,-0.66 1.58,-2.74 2.05,-3.55 0.12,-0.2 0.23,-0.38 0.34,-0.58l0.32 -0.64c-0.11,-0.08 -0.23,-0.14 -0.35,-0.22l-1.47 -0.93c-0.66,-0.4 -2.38,-0.95 -3.12,-1.13 -1.66,-0.4 -2.72,-0.31 -4.42,-0.31 -2.59,0 -5.6,0.92 -7.7,2.32 -0.9,0.61 -1.71,1.36 -2.46,2.14l-0.92 1.17c-0.25,0.36 -0.44,0.62 -0.65,1.01 -0.22,0.39 -0.4,0.7 -0.57,1.14 -0.58,1.46 -0.88,2.29 -1.12,3.88 -0.07,0.49 -0.14,1.03 -0.14,1.56l0 0z"/>
  <path class="fil0" d="M101.3 13.86c0,-0.45 0.06,-1.79 -0.01,-2.14 -0.05,-0.28 -0.36,-0.19 -0.91,-0.19l-5.47 0c-0.02,0.1 -0.04,0.11 -0.04,0.23l0 26.56c0,0.11 0.02,0.11 0.04,0.21l6.3 0c0.19,-0.38 0.04,-1.78 0.04,-2.49l0 -12.34c0,-1.88 0.2,-3.06 1.08,-4.53 0.12,-0.19 0.2,-0.32 0.34,-0.49 1.64,-2.01 3.44,-2.9 6.2,-1.98 0.79,0.25 1,0.48 1.66,0.79l1.34 -2.73c0.17,-0.34 1.31,-2.61 1.33,-2.79l-0.86 -0.36c-1.64,-0.64 -3.3,-0.56 -5.05,-0.56 -1.01,0 -2.64,0.48 -3.47,0.91l-0.7 0.39c-0.48,0.28 -0.83,0.58 -1.22,0.97l-0.6 0.54 0 0z"/>
  <path class="fil2" d="M167.07 38.55l-10.29 -15.71 -4.11 5.61 0 10.1 -6.56 0 0 -36.9 6.56 0 0 17.67 12.54 -17.67 7.48 0 -11.57 16.12 13.79 20.78 -7.84 0zm27.93 0l0 -2.27c-0.9,0.76 -2.12,1.41 -3.68,1.96 -1.57,0.55 -3.01,0.83 -4.31,0.83 -6.27,0 -9.41,-3.33 -9.41,-9.99l0 -17.52 6.3 0 0 17.05c0,3.47 1.56,5.19 4.66,5.19 1.44,0 2.76,-0.37 3.99,-1.1 1.23,-0.74 2.04,-1.6 2.45,-2.58l0 -18.56 6.29 0 0 26.99 -6.29 0zm28.69 -21.11c-1.12,-0.75 -2.35,-1.13 -3.7,-1.13 -1.46,0 -2.76,0.66 -3.89,1.99 -1.14,1.33 -1.71,2.95 -1.71,4.87l0 15.38 -6.29 0 0 -26.99 6.29 0 0 2.48c1.77,-2 4.12,-3 7.04,-3 2.15,0 3.79,0.33 4.94,0.99l-2.68 5.41zm23.85 21.11l0 -2.27c-0.9,0.76 -2.12,1.41 -3.68,1.96 -1.57,0.55 -3.01,0.83 -4.31,0.83 -6.27,0 -9.41,-3.33 -9.41,-9.99l0 -17.52 6.3 0 0 17.05c0,3.47 1.56,5.19 4.66,5.19 1.44,0 2.76,-0.37 3.99,-1.1 1.23,-0.74 2.04,-1.6 2.45,-2.58l0 -18.56 6.29 0 0 26.99 -6.29 0zm44.37 0l0 -16.92c0,-3.55 -1.59,-5.32 -4.77,-5.32 -0.94,0 -1.85,0.27 -2.73,0.83 -0.88,0.55 -1.49,1.2 -1.84,1.92l0 19.49 -6.3 0 0 -17.91c0,-1.32 -0.41,-2.38 -1.23,-3.16 -0.83,-0.78 -1.99,-1.17 -3.49,-1.17 -0.79,0 -1.65,0.29 -2.59,0.88 -0.93,0.6 -1.6,1.24 -2.03,1.96l0 19.4 -6.29 0 0 -26.99 4.33 0 1.29 2.37c1.75,-1.92 4.01,-2.89 6.78,-2.89 3.59,0 6.28,0.99 8.09,2.95 0.8,-0.9 1.9,-1.61 3.31,-2.15 1.42,-0.53 2.83,-0.8 4.24,-0.8 3.01,0 5.35,0.86 7.02,2.59 1.67,1.72 2.51,4.09 2.51,7.1l0 17.82 -6.3 0zm11.43 -1.73l2.23 -5.03c1.89,1.52 4.01,2.27 6.38,2.27 2.45,0 3.67,-0.87 3.67,-2.62 0,-1.03 -0.37,-1.88 -1.11,-2.53 -0.74,-0.65 -2.17,-1.44 -4.3,-2.32 -4.65,-1.94 -6.98,-4.65 -6.98,-8.13 0,-2.34 0.89,-4.16 2.67,-5.46 1.78,-1.3 4.05,-1.96 6.82,-1.96 2.8,0 5.44,0.63 7.91,1.89l-1.81 4.88c-1.38,-1.17 -3.29,-1.76 -5.74,-1.76 -2.19,0 -3.29,0.88 -3.29,2.62 0,0.7 0.36,1.32 1.08,1.88 0.72,0.55 2.26,1.3 4.63,2.24 2.37,0.92 4.08,2.06 5.12,3.39 1.04,1.33 1.55,2.94 1.55,4.81 0,2.51 -0.93,4.48 -2.78,5.92 -1.85,1.44 -4.37,2.16 -7.56,2.16 -1.8,0 -3.25,-0.15 -4.32,-0.44 -1.09,-0.3 -2.48,-0.9 -4.17,-1.81zm38.89 -0.96c-0.56,0.94 -1.56,1.71 -2.98,2.31 -1.42,0.6 -2.9,0.9 -4.45,0.9 -2.9,0 -5.19,-0.73 -6.85,-2.19 -1.66,-1.45 -2.49,-3.51 -2.49,-6.19 0,-3.13 1.17,-5.58 3.51,-7.34 2.34,-1.77 5.67,-2.65 9.98,-2.65 0.74,0 1.61,0.12 2.61,0.36 0,-3.17 -2,-4.75 -6.01,-4.75 -2.37,0 -4.35,0.39 -5.94,1.19l-1.36 -4.91c2.16,-1.03 4.74,-1.55 7.74,-1.55 4.11,0 7.13,0.94 9.05,2.82 1.92,1.87 2.87,5.42 2.87,10.65l0 5.77c0,3.59 0.72,5.86 2.17,6.78 -0.53,0.92 -1.1,1.48 -1.74,1.69 -0.64,0.22 -1.37,0.32 -2.19,0.32 -0.91,0 -1.73,-0.34 -2.45,-1.02 -0.73,-0.67 -1.22,-1.4 -1.47,-2.19zm-0.62 -10.05c-1.07,-0.21 -1.87,-0.31 -2.41,-0.31 -4.97,0 -7.44,1.64 -7.44,4.92 0,2.43 1.4,3.64 4.19,3.64 3.78,0 5.66,-1.91 5.66,-5.72l0 -2.53zm14.18 -24.3l6.3 -1.51 0 30.33c0,3.32 0.99,5.3 2.99,5.94 -0.97,1.87 -2.64,2.8 -5,2.8 -2.86,0 -4.29,-1.99 -4.29,-5.95l0 -31.61z"/>
 </g>
</svg>
